2. Jakso: Jalkapartio. Komennus Afganistanissa on alkanut. Jääkärit ovat partiotukikohdassa Ali Zayissa ja on aika tehdä jalkapartio läheiseen kylään.


Release name: Afganistan.PDTV.S01E02
Format : AVI
Format/Info : Audio Video Interleave
File size : 224 MiB
Duration : 22mn 19s
Overall bit rate : 1 404 Kbps
Writing application : Lavf52.31.0

Video
ID : 0
Format : xvid
Codec ID : xvid
Duration : 22mn 19s
Bit rate : 1 167 Kbps
Width : 640 pixels
Height : 352 pixels
Display aspect ratio : 16:9
Frame rate : 25.000 fps
Bits/(Pixel*Frame) : 0.207
Stream size : 186 MiB (83%)

Audio
ID : 1
Format : MPEG Audio
Format version : Version 1
Format profile : Layer 2
Codec ID : 50
Duration : 22mn 19s
Bit rate mode : Constant
Bit rate : 224 Kbps
Channel(s) : 2 channels
Sampling rate : 48.0 KHz
Compression mode : Lossy
Stream size : 35.8 MiB (16%)
Alignment : Aligned on interleaves
Interleave, duration : 24 ms (0.60 video frame